<?xml version="1.0" encoding="utf-8"?>
<!-- Generator: Adobe Illustrator 21.1.0, SVG Export Plug-In . SVG Version: 6.00 Build 0)  -->
<svg version="1.0" id="Layer_1" xmlns="http://www.w3.org/2000/svg" xmlns:xlink="http://www.w3.org/1999/xlink" x="0px" y="0px"
	 viewBox="0 0 185 56" enable-background="new 0 0 185 56" xml:space="preserve">
<rect x="-0.2" y="0.1" fill="#FFDD00" width="185.4" height="55.9"/>
<g>
	<path d="M20.3,44.9h-1.2v-2.4c-1.2,1.6-2.7,2.4-4.5,2.4c-1.6,0-3-0.6-4.1-1.8C9.4,42,8.9,40.6,8.9,39c0-1.7,0.5-3.1,1.6-4.3
		s2.5-1.7,4-1.7c1.8,0,3.3,0.8,4.6,2.4v-2.1h1.2C20.3,33.3,20.3,44.9,20.3,44.9z M19.2,38.7c0-1.4-0.4-2.5-1.3-3.4S16,34,14.7,34
		c-1.4,0-2.5,0.5-3.3,1.4c-0.4,0.5-0.8,1-1,1.6s-0.3,1.2-0.3,2c0,1.4,0.4,2.5,1.3,3.5c0.9,0.9,2,1.4,3.3,1.4c1.2,0,2.3-0.4,3.2-1.3
		C18.8,41.5,19.2,40.2,19.2,38.7z"/>
	<path d="M25.3,44.9h-1.2V30.3h1.2V44.9z"/>
	<path d="M40.6,39c0,1.8-0.6,3.3-1.7,4.4c-1.1,1.1-2.4,1.7-4,1.7c-1.8,0-3.4-0.7-4.6-2.2v2h-1.2V30.3h1.2v4.9
		c1.2-1.6,2.7-2.4,4.5-2.4c1.7,0,3.1,0.6,4.2,1.8S40.6,37.3,40.6,39z M39.4,39.1c0-1.4-0.4-2.6-1.3-3.6c-0.9-1-2-1.5-3.3-1.5
		s-2.4,0.4-3.3,1.3c-0.9,0.9-1.3,2.2-1.3,3.8c0,1.4,0.5,2.6,1.4,3.5s2,1.3,3.3,1.3s2.3-0.5,3.2-1.4C39,41.6,39.4,40.4,39.4,39.1z"/>
	<path d="M54.1,39.1h-9.9c0,1.4,0.4,2.6,1.3,3.5c0.8,1,1.9,1.4,3.3,1.4c0.9,0,1.7-0.3,2.5-0.8c0.7-0.5,1.3-1.1,1.6-1.8l0.9,0.6
		c-0.4,0.7-0.9,1.3-1.4,1.8c-1,0.9-2.2,1.4-3.6,1.4c-1.7,0-3.1-0.6-4.2-1.9c-1-1.2-1.5-2.6-1.5-4.3c0-1.6,0.5-3,1.5-4.2
		c1.1-1.2,2.4-1.8,4.1-1.8c1.4,0,2.7,0.5,3.8,1.6s1.6,2.3,1.6,3.8C54.1,38.4,54.1,39.1,54.1,39.1z M53,38c-0.2-1.1-0.6-2.1-1.3-2.8
		c-0.8-0.8-1.8-1.2-3-1.2s-2.3,0.4-3.1,1.2c-0.7,0.7-1.1,1.6-1.3,2.8H53z"/>
	<path d="M62,34.5c-0.3-0.2-0.7-0.4-1.1-0.4c-0.8,0-1.4,0.3-1.9,1c-0.4,0.6-0.6,1.2-0.6,1.8v7.9h-1.2V33.2h1.2v1.3
		c0.6-1,1.6-1.6,2.9-1.6c0.6,0,1,0.1,1.4,0.3L62,34.5z"/>
	<path d="M68.6,34.4h-2v10.5h-1.2V34.4h-1.3v-1.1h1.3v-2.9h1.2v2.9h2V34.4z"/>
	<path d="M82.3,39.1c0,1.7-0.6,3.1-1.7,4.3c-1.2,1.2-2.6,1.7-4.2,1.7s-3-0.6-4.2-1.8s-1.8-2.6-1.8-4.2c0-1.7,0.6-3.1,1.7-4.3
		c1.2-1.2,2.6-1.8,4.2-1.8c1.7,0,3.1,0.6,4.3,1.8C81.7,35.9,82.3,37.4,82.3,39.1z M81.2,39.1c0-1.3-0.5-2.5-1.4-3.5
		s-2.1-1.5-3.4-1.5c-1.4,0-2.5,0.5-3.5,1.4c-0.9,1-1.4,2.2-1.4,3.6c0,1.3,0.5,2.4,1.4,3.4c1,1,2.1,1.5,3.4,1.5
		c1.4,0,2.5-0.5,3.5-1.5C80.7,41.6,81.2,40.4,81.2,39.1z"/>
	<path d="M97.6,41.7c0,1.1-0.4,2-1.2,2.6c-0.8,0.6-1.7,0.9-2.7,0.9c-1.8,0-3-0.8-3.7-2.4l1.6-0.8c0.5,1,1.2,1.5,2.1,1.5
		c0.7,0,1.2-0.2,1.5-0.5c0.4-0.3,0.5-0.7,0.5-1.2c0-0.8-0.4-1.4-1.3-1.8c-0.2-0.1-0.4-0.2-0.8-0.3c-0.3-0.1-0.7-0.3-1.1-0.5
		c-1.4-0.6-2.1-1.7-2.1-3.1c0-0.9,0.3-1.7,1-2.3s1.5-0.9,2.5-0.9c0.7,0,1.4,0.2,2,0.6c0.6,0.4,1,1,1.3,1.7l-1.5,0.7
		c-0.4-0.9-0.9-1.3-1.8-1.3c-0.5,0-0.8,0.1-1.1,0.4c-0.3,0.3-0.5,0.6-0.5,1c0,0.5,0.2,0.9,0.6,1.2c0.3,0.2,0.7,0.5,1.3,0.7l1.1,0.5
		C96.8,39.1,97.6,40.2,97.6,41.7z"/>
	<path d="M102.8,30.8c0,0.3-0.1,0.6-0.4,0.9s-0.6,0.4-0.9,0.4c-0.4,0-0.7-0.1-0.9-0.4c-0.3-0.3-0.4-0.6-0.4-0.9s0.1-0.6,0.4-0.9
		s0.6-0.4,0.9-0.4c0.4,0,0.7,0.1,0.9,0.4C102.7,30.2,102.8,30.5,102.8,30.8z M102.5,44.9h-1.9V33.2h1.9V44.9z"/>
	<path d="M112.8,41.7c0,1.1-0.4,2-1.2,2.6c-0.8,0.6-1.7,0.9-2.7,0.9c-1.8,0-3-0.8-3.7-2.4l1.6-0.8c0.5,1,1.2,1.5,2.1,1.5
		c0.7,0,1.2-0.2,1.5-0.5c0.4-0.3,0.5-0.7,0.5-1.2c0-0.8-0.4-1.4-1.3-1.8c-0.2-0.1-0.4-0.2-0.8-0.3c-0.3-0.1-0.7-0.3-1.1-0.5
		c-1.4-0.6-2.1-1.7-2.1-3.1c0-0.9,0.3-1.7,1-2.3s1.5-0.9,2.5-0.9c0.7,0,1.4,0.2,2,0.6c0.6,0.4,1,1,1.3,1.7l-1.5,0.7
		c-0.4-0.9-0.9-1.3-1.8-1.3c-0.5,0-0.8,0.1-1.1,0.4c-0.3,0.3-0.5,0.6-0.5,1c0,0.5,0.2,0.9,0.6,1.2c0.3,0.2,0.7,0.5,1.3,0.7l1.1,0.5
		C112,39.1,112.8,40.2,112.8,41.7z"/>
	<path d="M122.2,41.7c0,1.1-0.4,2-1.2,2.6c-0.8,0.6-1.7,0.9-2.7,0.9c-1.8,0-3-0.8-3.7-2.4l1.6-0.8c0.5,1,1.2,1.5,2.1,1.5
		c0.7,0,1.2-0.2,1.5-0.5c0.4-0.3,0.5-0.7,0.5-1.2c0-0.8-0.4-1.4-1.3-1.8c-0.2-0.1-0.4-0.2-0.8-0.3c-0.3-0.1-0.7-0.3-1.1-0.5
		c-1.4-0.6-2.1-1.7-2.1-3.1c0-0.9,0.3-1.7,1-2.3s1.5-0.9,2.5-0.9c0.7,0,1.4,0.2,2,0.6c0.6,0.4,1,1,1.3,1.7l-1.5,0.7
		c-0.4-0.9-0.9-1.3-1.8-1.3c-0.5,0-0.8,0.1-1.1,0.4c-0.3,0.3-0.5,0.6-0.5,1c0,0.5,0.2,0.9,0.6,1.2c0.3,0.2,0.7,0.5,1.3,0.7l1.1,0.5
		C121.5,39.1,122.2,40.2,122.2,41.7z"/>
	<path d="M137,39.1c0,1.7-0.6,3.1-1.8,4.4c-1.2,1.2-2.7,1.8-4.4,1.8s-3.2-0.6-4.4-1.8c-1.2-1.2-1.8-2.6-1.8-4.4
		c0-1.7,0.6-3.1,1.8-4.4c1.2-1.2,2.7-1.8,4.4-1.8s3.2,0.6,4.4,1.7C136.4,35.8,137,37.3,137,39.1z M135.1,39c0-1.3-0.4-2.3-1.2-3.1
		c-0.8-0.9-1.9-1.3-3.2-1.3s-2.3,0.4-3.1,1.3c-0.8,0.8-1.2,1.9-1.2,3.1c0,1.2,0.4,2.2,1.3,3c0.8,0.8,1.8,1.3,3,1.3s2.2-0.4,3.1-1.2
		C134.7,41.4,135.1,40.3,135.1,39z"/>
</g>
<g>
	<path d="M93.4,49.9h-1.7v1.3h1.6v0.6h-1.6v2.4H91v-4.9h2.4V49.9z"/>
	<path d="M95.4,54.2h-0.7v-4.9h0.7V54.2z"/>
	<path d="M101.3,54.4l-3.6-3.6v3.5h-0.6v-5l3.6,3.7v-3.6h0.6V54.4z"/>
	<path d="M105.5,54.2H103v-4.9h2.5v0.6h-1.8v1.3h1.8v0.6h-1.8v1.7h1.8V54.2z"/>
	<path d="M113.4,54.2h-0.7l-0.5-1.1h-2.1l-0.5,1.1h-0.7l2.3-5L113.4,54.2z M112,52.5l-0.8-1.9l-0.8,1.9H112z"/>
	<path d="M117.7,54.2H117l-1.6-2.4v2.4h-0.6v-4.9h1.4c0.4,0,0.7,0.1,1,0.4c0.3,0.3,0.4,0.6,0.4,1s-0.1,0.7-0.3,0.9
		c-0.2,0.2-0.5,0.4-0.9,0.4L117.7,54.2z M116.7,50.7c0-0.3-0.1-0.4-0.2-0.6c-0.1-0.1-0.3-0.2-0.6-0.2h-0.6v1.6h0.5
		C116.5,51.5,116.7,51.3,116.7,50.7z"/>
	<path d="M121.1,50H120v4.2h-0.7V50h-1.1v-0.6h2.8L121.1,50L121.1,50z"/>
	<path d="M127.3,50.7c0,0.4-0.1,0.7-0.3,1c-0.2,0.3-0.6,0.4-0.9,0.4h-0.8v2.1h-0.7v-4.9h1.2c0.4,0,0.8,0.1,1.1,0.4
		C127.1,50,127.3,50.3,127.3,50.7z M126.6,50.7c0-0.2-0.1-0.4-0.3-0.6c-0.2-0.1-0.4-0.2-0.6-0.2h-0.5v1.6h0.5c0.3,0,0.5-0.1,0.7-0.2
		C126.5,51.2,126.6,51,126.6,50.7z"/>
	<path d="M132.2,54.2h-0.7v-2.4h-2.2v2.4h-0.7v-4.9h0.7v1.9h2.2v-1.9h0.7V54.2z"/>
	<path d="M138.7,51.8c0,0.7-0.2,1.3-0.7,1.8s-1.1,0.7-1.8,0.7s-1.3-0.2-1.8-0.7s-0.7-1.1-0.7-1.8s0.2-1.3,0.7-1.8s1.1-0.7,1.8-0.7
		s1.3,0.2,1.8,0.7S138.7,51.1,138.7,51.8z M138,51.8c0-0.5-0.2-1-0.5-1.3c-0.3-0.4-0.8-0.5-1.3-0.5s-1,0.2-1.3,0.6
		c-0.3,0.4-0.5,0.8-0.5,1.3s0.2,1,0.5,1.3c0.3,0.4,0.8,0.5,1.3,0.5c0.6,0,1-0.2,1.3-0.5C137.9,52.8,138,52.3,138,51.8z"/>
	<path d="M142.3,50h-1.1v4.2h-0.7V50h-1.1v-0.6h2.8V50H142.3z"/>
	<path d="M148.1,51.8c0,0.7-0.2,1.3-0.7,1.8s-1.1,0.7-1.8,0.7s-1.3-0.2-1.8-0.7s-0.7-1.1-0.7-1.8s0.2-1.3,0.7-1.8s1.1-0.7,1.8-0.7
		s1.3,0.2,1.8,0.7C147.9,50.5,148.1,51.1,148.1,51.8z M147.4,51.8c0-0.5-0.2-1-0.5-1.3c-0.3-0.4-0.8-0.5-1.3-0.5s-1,0.2-1.3,0.6
		c-0.3,0.4-0.5,0.8-0.5,1.3s0.2,1,0.5,1.3c0.3,0.4,0.8,0.5,1.3,0.5c0.6,0,1-0.2,1.3-0.5C147.3,52.8,147.4,52.3,147.4,51.8z"/>
	<path d="M154,52.1c0,0.6-0.2,1.2-0.6,1.6c-0.4,0.4-0.9,0.6-1.5,0.6c-0.7,0-1.3-0.2-1.8-0.7s-0.7-1.1-0.7-1.8s0.2-1.3,0.7-1.8
		s1-0.7,1.7-0.7c0.5,0,0.9,0.1,1.3,0.3c0.3,0.1,0.5,0.4,0.8,0.6l-0.5,0.4c-0.2-0.2-0.3-0.4-0.5-0.4c-0.3-0.2-0.7-0.3-1.1-0.3
		c-0.5,0-0.9,0.2-1.3,0.6c-0.3,0.4-0.5,0.8-0.5,1.3c0,0.6,0.2,1,0.5,1.4s0.8,0.5,1.3,0.5c0.4,0,0.8-0.1,1.1-0.4
		c0.3-0.3,0.4-0.6,0.4-1h-1.2v-0.6h1.8v0.4H154z"/>
	<path d="M158.6,54.2h-0.8l-1.6-2.4v2.4h-0.6v-4.9h1.4c0.4,0,0.7,0.1,1,0.4c0.3,0.3,0.4,0.6,0.4,1s-0.1,0.7-0.3,0.9
		s-0.5,0.4-0.9,0.4L158.6,54.2z M157.6,50.7c0-0.3-0.1-0.4-0.2-0.6c-0.1-0.1-0.3-0.2-0.6-0.2h-0.6v1.6h0.5
		C157.3,51.5,157.6,51.3,157.6,50.7z"/>
	<path d="M163.9,54.2h-0.7l-0.5-1.1h-2.1l-0.5,1.1h-0.7l2.3-5L163.9,54.2z M162.4,52.5l-0.8-1.9l-0.8,1.9H162.4z"/>
	<path d="M167.9,50.7c0,0.4-0.1,0.7-0.3,1s-0.6,0.4-0.9,0.4h-0.8v2.1h-0.7v-4.9h1.2c0.4,0,0.8,0.1,1.1,0.4
		C167.7,50,167.9,50.3,167.9,50.7z M167.2,50.7c0-0.2-0.1-0.4-0.3-0.6c-0.2-0.1-0.4-0.2-0.6-0.2h-0.5v1.6h0.5c0.3,0,0.5-0.1,0.7-0.2
		C167.1,51.2,167.2,51,167.2,50.7z"/>
	<path d="M172.8,54.2h-0.7v-2.4h-2.2v2.4h-0.7v-4.9h0.7v1.9h2.2v-1.9h0.7V54.2z"/>
	<path d="M177.7,49.3l-1.5,2.8v2.1h-0.7v-2.1l-1.6-2.7h0.8l1.1,2.1l1.1-2.1L177.7,49.3L177.7,49.3z"/>
</g>
<line fill="none" stroke="#BE1E2D" stroke-miterlimit="10" x1="86.4" y1="20.6" x2="86.4" y2="54.8"/>
</svg>
